<?xml version="1.0" encoding="UTF-8"?>
<svg width="64px" height="94px" viewBox="0 0 64 94" version="1.1" xmlns="http://www.w3.org/2000/svg" xmlns:xlink="http://www.w3.org/1999/xlink">
    <!-- Generator: Sketch 64 (93537) - https://sketch.com -->
    <title>clothes</title>
    <desc>Created with Sketch.</desc>
    <g id="web-app" stroke="none" stroke-width="1" fill="none" fill-rule="evenodd">
        <g transform="translate(-1108.000000, -648.000000)" id="Group-6">
            <g transform="translate(50.000000, 620.000000)">
                <g id="clothes" transform="translate(1000.000000, 0.000000)">
                    <g>
                        <rect id="Rectangle-Copy-7" x="0" y="0" width="180" height="149"></rect>
                        <g id="dress" transform="translate(58.000000, 28.000000)" fill="#FFFFFF" fill-rule="nonzero">
                            <path d="M48.2049258,21.6045781 L52.5507734,24.0507812 L63.4310898,16.3526953 L58.6354375,6.23208984 C56.0662266,2.32870313 51.7473672,0 47.0719688,0 L45.2655898,0 L42.0686719,7.29675 C40.9863867,6.95269531 39.8506758,6.77571094 38.6933008,6.77571094 C36.2421406,6.77571094 33.8724961,7.59674219 31.9524727,9.05264063 C30.0324492,7.59674219 27.6628047,6.77571094 25.2116445,6.77571094 C24.0674883,6.77571094 22.9442617,6.94865625 21.8728086,7.285 L18.671668,0 L16.8674922,0 C12.1919102,0 7.87323437,2.32870313 5.30402344,6.23208984 L0.09253125,15.9368555 L11.3885039,24.0507812 L15.7121367,21.6168789 L18.3430352,40.0599727 L45.5874297,40.0599727 L48.2049258,21.6045781 Z" id="Path"></path>
                            <path d="M47.2201289,45.5870625 L16.715293,45.5870625 C13.5528906,50.8651992 11.5889883,56.8898281 11.0367383,63.0176367 C10.4813672,69.1788594 11.3473789,75.492832 13.5413242,81.2767695 L18.3669023,94 L45.5747617,94 L50.3979531,81.2831953 C52.5924492,75.4972383 53.4582773,69.1812461 52.9019883,63.0181875 C52.3486367,56.8896445 50.3836328,50.8651992 47.2201289,45.5870625 Z" id="Path"></path>
                        </g>
                    </g>
                </g>
            </g>
        </g>
    </g>
</svg>