<?xml version="1.0" encoding="UTF-8"?>
<svg width="100px" height="84px" viewBox="0 0 100 84" version="1.1" xmlns="http://www.w3.org/2000/svg" xmlns:xlink="http://www.w3.org/1999/xlink">
    <!-- Generator: Sketch 64 (93537) - https://sketch.com -->
    <title>computer</title>
    <desc>Created with Sketch.</desc>
    <g id="web-app" stroke="none" stroke-width="1" fill="none" fill-rule="evenodd">
        <g transform="translate(-290.000000, -653.000000)" id="Group-6">
            <g transform="translate(50.000000, 620.000000)">
                <g id="computer" transform="translate(200.000000, 0.000000)">
                    <rect id="Rectangle-Copy-3" x="0" y="0" width="180" height="149"></rect>
                    <g id="tv" transform="translate(40.000000, 33.000000)" fill="#FFFFFF" fill-rule="nonzero">
                        <path d="M92.2777465,0.0741408451 L7.05757746,0.0741408451 C3.17701408,0.0741408451 0.0197183099,3.23064789 0.0197183099,7.11121127 L0,65.1729577 C0,69.0527324 3.15571831,72.2218592 7.03628169,72.2218592 L34.9179718,72.2218592 L34.9179718,79.2037183 L29.4733521,79.2037183 C29.0450704,79.2037183 28.7114366,79.5681127 28.7114366,79.9963944 L28.7114366,83.0590423 C28.7114366,83.4873239 29.0442817,83.8596056 29.4733521,83.8596056 L69.6987042,83.8596056 C70.1254085,83.8596056 70.6025915,83.4873239 70.6025915,83.0590423 L70.6025915,79.9963944 C70.6025915,79.5681127 70.1254085,79.2037183 69.6987042,79.2037183 L64.3960563,79.2037183 L64.3960563,72.2218592 L92.2588169,72.2218592 C96.1362254,72.2218592 99.2958873,69.0527324 99.2958873,65.1729577 L99.3140283,7.11752113 C99.3140283,3.23616901 96.1583099,0.0741408451 92.2777465,0.0741408451 Z M49.56,66.7512113 C48.2735775,66.7512113 47.2324507,65.7092958 47.2324507,64.423662 C47.2324507,63.1388169 48.2735775,62.0969014 49.56,62.0969014 C50.8456338,62.0969014 51.8875493,63.1388169 51.8875493,64.423662 C51.8875493,65.7092958 50.8464225,66.7512113 49.56,66.7512113 Z M93.1003944,56.7059155 L6.2136338,56.7059155 L6.2136338,6.27988732 L93.1003944,6.27988732 L93.1003944,56.7059155 Z" id="Shape"></path>
                    </g>
                </g>
            </g>
        </g>
    </g>
</svg>