<?xml version="1.0" encoding="UTF-8"?>
<svg width="119px" height="84px" viewBox="0 0 119 84" version="1.1" xmlns="http://www.w3.org/2000/svg" xmlns:xlink="http://www.w3.org/1999/xlink">
    <!-- Generator: Sketch 64 (93537) - https://sketch.com -->
    <title>games</title>
    <desc>Created with Sketch.</desc>
    <g id="web-app" stroke="none" stroke-width="1" fill="none" fill-rule="evenodd">
        <g transform="translate(-481.000000, -653.000000)" id="Group-6">
            <g transform="translate(50.000000, 620.000000)">
                <g id="games" transform="translate(400.000000, 0.000000)">
                    <rect id="Rectangle-Copy-4" x="0" y="0" width="180" height="149"></rect>
                    <g id="joystick" transform="translate(31.000000, 33.000000)" fill="#FFFFFF" fill-rule="nonzero">
                        <path d="M103.683371,6.53760674 C100.614067,1.60897753 85.0778427,-0.823247191 82.0736629,0.265921348 C80.2662472,0.921876404 78.6381573,1.8081236 76.9137978,2.7462809 C72.7864719,4.99068539 68.1098427,7.53616854 59.3540225,7.53616854 C50.6029213,7.53616854 45.9244045,4.99162921 41.7970787,2.74722472 C40.0727191,1.80906742 38.4427416,0.921876404 36.634382,0.265921348 C33.626427,-0.827022472 18.0939775,1.60803371 15.025618,6.53760674 C2.49640449,26.6532472 -4.65492135,72.6512697 3.43173034,81.1107303 C5.11078652,82.866236 7.15226966,83.7798539 9.38346067,83.7798539 C9.65150562,83.7798539 9.92049438,83.7675843 10.1951461,83.7402135 C14.6027865,83.3126629 19.3294382,79.4826404 23.5171685,72.9363034 L24.6742921,71.0260112 C32.1115955,58.7016067 32.7213034,57.6945506 59.3540225,57.6945506 C85.9914607,57.6945506 86.5973933,58.7016067 94.0365843,71.0269551 L95.2003146,72.954236 C99.3776629,79.4816966 104.106202,83.3117191 108.512899,83.7392697 C111.065933,83.9884382 113.398112,83.0776517 115.277258,81.1107303 C123.364854,72.6512697 116.210697,26.6532472 103.683371,6.53760674 Z M84.4794607,9.40304494 L90.0734831,9.40304494 C90.5850337,9.40304494 91.0003146,9.82776404 91.0003146,10.3412022 L91.0022022,15.8965281 C91.0022022,16.2136517 90.840809,16.5109551 90.5737079,16.6817865 L87.7762247,18.4722135 C87.6252135,18.5703708 87.4496629,18.6203933 87.2769438,18.6203933 C87.1013933,18.6203933 86.9286742,18.5713146 86.7767191,18.4741011 L83.9480899,16.684618 C83.6819326,16.5137865 83.4912809,16.2193146 83.4912809,15.902191 L83.4912809,10.3506404 L83.4903371,10.3506404 C83.4903371,9.83814607 83.9650787,9.40304494 84.4794607,9.40304494 Z M67.388764,20.1512697 C68.0843596,19.4547303 69.3283146,19.4547303 70.0248539,20.1512697 C70.3665169,20.4948202 70.5628315,20.9771124 70.5628315,21.4612921 C70.5628315,21.9530225 70.3665169,22.4353146 70.0248539,22.7788652 C69.6709213,23.1224157 69.1971236,23.3177865 68.7072809,23.3177865 C68.2231011,23.3177865 67.7417528,23.1224157 67.3982022,22.7788652 C67.0442697,22.4258764 66.8507831,21.9530225 66.8507831,21.4612921 C66.8498427,20.9771124 67.0433258,20.4948202 67.388764,20.1512697 Z M48.7653034,20.1512697 C49.4608989,19.4547303 50.6963596,19.4547303 51.3919551,20.1512697 C51.744,20.4948202 51.9403146,20.9771124 51.9403146,21.4612921 C51.9403146,21.9530225 51.744,22.4258764 51.3919551,22.7684831 C51.0484045,23.1224157 50.5651685,23.3177865 50.0828764,23.3177865 C49.5911461,23.3177865 49.1164045,23.1224157 48.7653034,22.7684831 C48.420809,22.4258764 48.2273258,21.9530225 48.2273258,21.4612921 C48.2273258,20.9771124 48.420809,20.4948202 48.7653034,20.1512697 Z M28.7591461,28.8889213 C24.6648539,28.8889213 21.3331685,25.557236 21.3331685,21.4629438 C21.3331685,17.366764 24.6648539,14.0360225 28.7591461,14.0360225 C32.8553258,14.0360225 36.1860674,17.3658202 36.1860674,21.4629438 C36.1860674,25.5565281 32.8553258,28.8889213 28.7591461,28.8889213 Z M55.6419775,41.8836742 C55.6419775,42.3952247 55.2672809,42.8227753 54.7538427,42.8227753 L49.1437753,42.8227753 L49.1437753,48.4479438 C49.1437753,48.961382 48.8162697,49.3209775 48.3028315,49.3209775 L42.6861573,49.3209775 C42.1736629,49.3209775 41.7177978,48.961382 41.7177978,48.4479438 L41.7177978,42.8227753 L36.1926742,42.8227753 C35.679236,42.8227753 35.2205393,42.3961685 35.2205393,41.8836742 L35.2205393,36.2990899 C35.2205393,35.7875393 35.679236,35.3958539 36.1926742,35.3958539 L41.7177978,35.3958539 L41.7177978,29.8150449 C41.7177978,29.3034944 42.1736629,28.8967079 42.6861573,28.8967079 L48.3028315,28.8967079 C48.8162697,28.8967079 49.1437753,29.3025506 49.1437753,29.8150449 L49.1437753,35.3958539 L54.7538427,35.3958539 C55.2672809,35.3958539 55.6419775,35.7865955 55.6419775,36.2990899 L55.6419775,41.8836742 Z M59.3540225,26.1341461 C56.7783371,26.1341461 54.6811685,24.0379213 54.6811685,21.462236 C54.6811685,18.8865506 56.7783371,16.7903258 59.3540225,16.7903258 C61.9325393,16.7903258 64.0268764,18.8865506 64.0268764,21.462236 C64.0268764,24.0388652 61.9325393,26.1341461 59.3540225,26.1341461 Z M73.221573,46.6546854 C69.1263371,46.6546854 65.7946517,43.3239438 65.7946517,39.227764 C65.7946517,35.1315843 69.1263371,31.8008427 73.221573,31.8008427 C77.3158652,31.8008427 80.6475506,35.1315843 80.6475506,39.227764 C80.6475506,43.3239438 77.3158652,46.6546854 73.221573,46.6546854 Z M81.7131236,25.1846629 L76.1625169,25.1846629 C75.6500225,25.1846629 75.1356404,24.7731573 75.1356404,24.2606629 L75.1356404,18.6656966 C75.1356404,18.1522584 75.6500225,17.7577416 76.1625169,17.7577416 L81.7131236,17.7577416 C82.031191,17.7577416 82.3228315,17.9087528 82.4964944,18.1749101 L84.2859775,20.9667303 C84.483236,21.2725281 84.483236,21.6604382 84.2859775,21.9671798 L82.4964944,24.7599438 C82.3237753,25.0251573 82.031191,25.1846629 81.7131236,25.1846629 Z M90.074427,33.5393596 L84.4794607,33.5393596 C83.9650787,33.5393596 83.4903371,33.0872697 83.4903371,32.5757191 L83.4903371,27.0251124 C83.4903371,26.7079888 83.6809888,26.4135169 83.9471461,26.2426854 L86.7606742,24.4522584 C87.0636404,24.2578315 87.4638202,24.2578315 87.7677303,24.4522584 L90.5274607,26.2426854 C90.7926742,26.412573 90.9163146,26.7070449 90.9163146,27.0251124 L90.9163146,32.5757191 L90.9172584,32.5757191 C90.9172584,33.0870337 90.5859775,33.5393596 90.074427,33.5393596 Z M99.2719551,24.2606629 C99.2719551,24.7731573 98.9029213,25.1846629 98.3885393,25.1846629 L92.8388764,25.1846629 C92.5198652,25.1846629 92.2263371,25.0261011 92.0545618,24.759 L90.2650787,21.9624607 C90.0706517,21.6566629 90.0706517,21.2668652 90.2650787,20.9610674 L92.0545618,18.1749101 C92.2263371,17.9087528 92.5198652,17.7586854 92.8388764,17.7586854 L98.3885393,17.7586854 C98.9029213,17.7586854 99.2719551,18.1532022 99.2719551,18.6666404 L99.2719551,24.2606629 Z" id="Shape"></path>
                    </g>
                </g>
            </g>
        </g>
    </g>
</svg>