<?xml version="1.0" encoding="UTF-8"?>
<svg width="120px" height="63px" viewBox="0 0 120 63" version="1.1" xmlns="http://www.w3.org/2000/svg" xmlns:xlink="http://www.w3.org/1999/xlink">
    <!-- Generator: Sketch 64 (93537) - https://sketch.com -->
    <title>shoes</title>
    <desc>Created with Sketch.</desc>
    <g id="web-app" stroke="none" stroke-width="1" fill="none" fill-rule="evenodd">
        <g transform="translate(-880.000000, -663.000000)" id="Group-6">
            <g transform="translate(50.000000, 620.000000)">
                <g id="shoes" transform="translate(800.000000, 0.000000)">
                    <rect id="Rectangle-Copy-6" x="0" y="0" width="180" height="149"></rect>
                    <g transform="translate(30.000000, 43.000000)" fill="#FFFFFF" fill-rule="nonzero" id="Shape">
                        <path d="M10.484375,34.9479167 L0,34.9479167 L0,41.9375 L20.3676459,41.9375 C18.9277917,37.8695625 15.0392535,34.9479167 10.484375,34.9479167 Z M0,48.9270834 L0,59.4114584 C0,61.3405834 1.56566667,62.9062501 3.49479167,62.9062501 L115.794097,62.9062501 C117.723222,62.9062501 119.288889,61.3405834 119.288889,59.4114584 L119.288889,48.9270834 L0,48.9270834 Z M108.303594,24.6941979 C103.175337,22.6425222 102.411841,22.3387084 102.045587,22.1872674 L90.3077466,33.9251077 C88.9508355,35.2822518 86.7339727,35.295532 85.3637813,33.9251077 C84.0008126,32.5598091 84.0008126,30.346441 85.3637813,28.9811424 L95.1095904,19.2353334 C92.5770313,18.1053507 90.0654411,16.9217813 87.5771494,15.6869549 L76.3285799,26.9355243 C74.9716688,28.2926684 72.754806,28.3059486 71.3846146,26.9355243 C70.0216459,25.5702257 70.0216459,23.3568577 71.3846146,21.991559 L81.0605279,12.3156458 C78.6724202,11.0295625 76.3122709,9.69688195 73.9777501,8.31760417 L62.3494133,19.945941 C60.9925021,21.3030851 58.7756393,21.3163653 57.405448,19.945941 C56.0424792,18.5806424 56.0424792,16.3672743 57.405448,15.0019757 L67.8525452,4.55720834 C65.4131806,3.00691875 63.8901504,1.962675 61.8158751,0.587125001 C61.2427292,0.205027778 60.5670695,0 59.8774306,0 L45.4322917,0 C43.5031667,0 41.9375,1.56566667 41.9375,3.49479167 L41.9375,10.484375 C41.9375,12.4111702 40.3695035,13.9791667 38.4427084,13.9791667 L24.4635417,13.9791667 C22.5367465,13.9791667 20.96875,12.4111702 20.96875,10.484375 C20.96875,4.70398959 16.2647604,0 10.484375,0 L3.49479167,0 C1.56566667,0 0,1.56566667 0,3.49479167 L0,27.9583334 L10.484375,27.9583334 C18.9254618,27.9583334 25.984941,33.9717049 27.6065243,41.9375 L119.288889,41.9375 L119.288889,40.9170209 C119.288889,33.7317292 114.976316,27.3618889 108.303594,24.6941979 Z"></path>
                    </g>
                </g>
            </g>
        </g>
    </g>
</svg>