<?xml version="1.0" encoding="UTF-8"?>
<svg width="52px" height="94px" viewBox="0 0 52 94" version="1.1" xmlns="http://www.w3.org/2000/svg" xmlns:xlink="http://www.w3.org/1999/xlink">
    <!-- Generator: Sketch 64 (93537) - https://sketch.com -->
    <title>smart-phone</title>
    <desc>Created with Sketch.</desc>
    <g id="web-app" stroke="none" stroke-width="1" fill="none" fill-rule="evenodd">
        <g transform="translate(-114.000000, -648.000000)" id="Group-6">
            <g transform="translate(50.000000, 620.000000)">
                <g id="smart-phone">
                    <rect id="Rectangle" x="0" y="0" width="180" height="149"></rect>
                    <g id="smartphone" transform="translate(64.000000, 28.000000)" fill="#FFFFFF" fill-rule="nonzero">
                        <path d="M41.8382063,0 L10.1072381,0 C4.71268254,0 0.129063492,4.39860317 0.129063492,9.79166667 L0.129063492,84.1456667 C0.129063492,89.5387302 4.61569841,93.9261429 10.010254,93.9261429 L41.7934444,93.8918254 C47.187254,93.8918254 51.6000317,89.5036667 51.6000317,84.1098571 L51.6462857,9.78644444 C51.6455397,4.37398413 47.2543968,0 41.8382063,0 Z M21.3887302,5.87052381 L30.5947619,5.87052381 C31.4034603,5.87052381 32.0622063,6.52703175 32.0622063,7.33796825 C32.0622063,8.14890476 31.4034603,8.8054127 30.5947619,8.8054127 L21.3887302,8.8054127 C20.5777937,8.8054127 19.9212857,8.14890476 19.9212857,7.33796825 C19.9212857,6.52703175 20.5777937,5.87052381 21.3887302,5.87052381 Z M15.8569048,6.33753968 C16.4007619,5.79442857 17.390746,5.78696825 17.9338571,6.33753968 C18.2061587,6.60909524 18.3673016,6.99031746 18.3673016,7.37974603 C18.3673016,7.76171429 18.2061587,8.14219048 17.9338571,8.41449206 C17.6630476,8.68679365 17.2803333,8.84719048 16.8991111,8.84719048 C16.5104286,8.84719048 16.1366667,8.68679365 15.8569048,8.41449206 C15.5860952,8.14293651 15.431664,7.76171429 15.431664,7.37974603 C15.4309206,6.99031746 15.5860952,6.60909524 15.8569048,6.33753968 Z M25.6955714,91.0173651 C23.2739524,91.0173651 21.3044286,89.0463492 21.3044286,86.6254762 C21.3044286,84.2038571 23.2739524,82.2335873 25.6955714,82.2335873 C28.1171905,82.2335873 30.0867143,84.2038571 30.0867143,86.6254762 C30.0867143,89.0463492 28.1164444,91.0173651 25.6955714,91.0173651 Z M47.0910159,79.2487143 L5.26549206,79.2487143 L5.26549206,13.9425873 L47.0910159,13.9425873 L47.0910159,79.2487143 Z" id="Shape"></path>
                    </g>
                </g>
            </g>
        </g>
    </g>
</svg>