<?xml version="1.0" encoding="UTF-8"?>
<svg width="53px" height="94px" viewBox="0 0 53 94" version="1.1" xmlns="http://www.w3.org/2000/svg" xmlns:xlink="http://www.w3.org/1999/xlink">
    <!-- Generator: Sketch 64 (93537) - https://sketch.com -->
    <title>smart watch</title>
    <desc>Created with Sketch.</desc>
    <g id="web-app" stroke="none" stroke-width="1" fill="none" fill-rule="evenodd">
        <g transform="translate(-714.000000, -648.000000)" id="Group-6">
            <g transform="translate(50.000000, 620.000000)">
                <g id="smart-watch" transform="translate(600.000000, 0.000000)">
                    <rect id="Rectangle-Copy-5" x="0" y="0" width="180" height="149"></rect>
                    <g transform="translate(64.000000, 28.000000)" fill="#FFFFFF" fill-rule="nonzero">
                        <path d="M40.2633333,1.92103175 C40.1055661,0.818612505 39.1612701,0 38.047619,0 L20.1428571,0 C19.0292061,0 18.0849101,0.818612505 17.9271429,1.92103175 L15.5372302,18.6507937 L42.653246,18.6507937 L40.2633333,1.92103175 Z" id="Path"></path>
                        <path d="M17.9271429,92.0789683 C18.0849101,93.1813875 19.0292061,94 20.1428571,94 L38.047619,94 C39.1612701,94 40.1055661,93.1813875 40.2633333,92.0789683 L42.653246,75.3492063 L15.5372302,75.3492063 L17.9271429,92.0789683 Z" id="Path"></path>
                        <path d="M45.5079365,20.8888889 L12.6825397,20.8888889 C8.97604644,20.8930004 5.97236545,23.8966814 5.96825397,27.6031746 L5.96825397,41.031746 L2.23809524,41.031746 C1.00202937,41.031746 0,42.0337754 0,43.2698413 L0,50.7301587 C0,51.9662246 1.00202937,52.968254 2.23809524,52.968254 L5.96825397,52.968254 L5.96825397,66.3968254 C5.97236545,70.1033186 8.97604644,73.1069996 12.6825397,73.1111111 L45.5079365,73.1111111 C49.2144297,73.1069996 52.2181107,70.1033186 52.2222222,66.3968254 L52.2222222,27.6031746 C52.2181107,23.8966814 49.2144297,20.8930004 45.5079365,20.8888889 Z M20.8888889,63.4126984 C19.652823,63.4126984 18.6507937,62.410669 18.6507937,61.1746032 C18.6507937,59.9385373 19.652823,58.9365079 20.8888889,58.9365079 C22.1249548,58.9365079 23.1269841,59.9385373 23.1269841,61.1746032 C23.1269841,62.410669 22.1249548,63.4126984 20.8888889,63.4126984 Z M29.0952381,63.4126984 C27.8591722,63.4126984 26.8571429,62.410669 26.8571429,61.1746032 C26.8571429,59.9385373 27.8591722,58.9365079 29.0952381,58.9365079 C30.331304,58.9365079 31.3333333,59.9385373 31.3333333,61.1746032 C31.3333333,62.410669 30.331304,63.4126984 29.0952381,63.4126984 Z M37.3015873,63.4126984 C36.0655214,63.4126984 35.0634921,62.410669 35.0634921,61.1746032 C35.0634921,59.9385373 36.0655214,58.9365079 37.3015873,58.9365079 C38.5376532,58.9365079 39.5396825,59.9385373 39.5396825,61.1746032 C39.5396825,62.410669 38.5376532,63.4126984 37.3015873,63.4126984 L37.3015873,63.4126984 Z M40.0494087,44.5048968 C37.6026111,49.3984921 30.6387778,54.1154643 30.3435357,54.3139087 C29.5886409,54.8211835 28.6018353,54.8211835 27.8469405,54.3139087 C27.5516984,54.1154643 20.5878651,49.3984921 18.1410675,44.5048968 C16.2291746,40.6814841 17.0679008,36.3004127 20.1357698,34.0893611 C22.159754,32.6303095 25.5704246,32.0489643 29.0952381,34.5955437 C32.6202381,32.0487778 36.0309087,32.630496 38.0547063,34.0893611 C41.1225754,36.3004127 41.9613016,40.6807381 40.0494087,44.5048968 Z" id="Shape"></path>
                    </g>
                </g>
            </g>
        </g>
    </g>
</svg>